<?xml version="1.0" standalone="no"?>
<!DOCTYPE svg PUBLIC "-//W3C//DTD SVG 20010904//EN"
 "http://www.w3.org/TR/2001/REC-SVG-20010904/DTD/svg10.dtd">
<svg version="1.0" xmlns="http://www.w3.org/2000/svg"
 width="898.000000pt" height="898.000000pt" viewBox="0 0 898.000000 898.000000"
 preserveAspectRatio="xMidYMid meet">
<metadata>
Created by potrace 1.11, written by Peter Selinger 2001-2013
</metadata>
<g transform="translate(0.000000,898.000000) scale(0.100000,-0.100000)"
fill="#000000" stroke="none">
<path d="M680 4490 l0 -4490 3810 0 3810 0 0 4490 0 4490 -3810 0 -3810 0 0
-4490z m4350 4105 c209 -38 361 -89 775 -261 82 -34 96 -37 182 -36 82 1 108
6 225 46 73 24 160 48 193 51 60 7 60 6 136 -44 92 -62 145 -82 225 -84 78 -2
107 16 131 83 10 27 23 50 29 50 30 0 176 -86 238 -139 139 -121 231 -254 290
-419 l31 -87 -1 -200 c-2 -187 -10 -288 -49 -570 -45 -334 -41 -657 11 -894
14 -64 27 -125 27 -135 2 -26 -66 -78 -207 -157 -79 -45 -130 -82 -178 -130
l-67 -68 -137 121 c-243 213 -390 310 -491 324 -41 5 -60 14 -87 40 -61 59
-60 137 1 238 24 39 38 76 41 108 4 46 2 51 -54 125 -73 96 -293 316 -381 382
-46 34 -86 54 -132 67 -36 9 -138 50 -226 90 -293 132 -281 128 -371 126 -44
0 -112 -8 -150 -17 -170 -41 -216 -43 -419 -19 -323 36 -407 54 -649 135 -207
70 -304 89 -476 96 -334 12 -416 -49 -655 -489 -88 -163 -150 -208 -293 -213
-34 -1 -65 -4 -67 -7 -5 -5 71 -233 123 -374 127 -339 293 -534 685 -803 65
-44 156 -115 202 -158 117 -106 159 -133 209 -133 58 0 158 26 214 54 154 78
317 87 452 25 69 -31 82 -34 175 -34 85 0 112 4 180 29 113 41 219 40 415 -4
145 -32 146 -32 555 -41 458 -10 531 -18 683 -75 363 -136 639 -339 895 -659
53 -66 160 -181 238 -255 250 -237 303 -319 379 -583 27 -97 63 -213 79 -256
62 -168 87 -328 71 -443 -13 -93 -42 -170 -143 -388 -47 -102 -92 -215 -101
-250 -8 -36 -23 -98 -32 -139 -60 -260 -291 -538 -775 -933 -58 -47 -159 -138
-226 -201 -190 -181 -210 -187 -527 -148 -82 10 -190 0 -229 -21 -12 -6 -56
-33 -97 -61 -179 -120 -217 -135 -388 -152 -121 -12 -140 -17 -216 -54 -45
-22 -107 -44 -138 -49 -99 -15 -231 11 -377 75 -30 13 -91 33 -135 45 -95 25
-248 29 -616 14 -280 -11 -312 -5 -607 105 -116 43 -240 86 -275 94 -82 19
-255 19 -338 -1 -149 -35 -305 -142 -485 -333 -315 -335 -393 -391 -557 -399
-217 -11 -276 38 -304 250 -17 132 -26 152 -105 243 -74 85 -121 169 -146 255
-15 55 -18 101 -17 290 1 239 16 408 59 655 42 240 56 382 62 607 8 311 -10
404 -134 694 -59 137 -68 167 -67 215 3 129 154 354 282 419 34 18 51 21 90
15 61 -9 84 -22 223 -120 151 -108 152 -108 239 -114 l75 -6 60 -120 c45 -90
83 -193 148 -400 128 -404 214 -613 312 -750 106 -150 453 -429 604 -486 49
-19 69 -20 166 -15 61 3 146 10 190 15 147 17 212 -13 200 -91 l-5 -38 154 0
c189 0 317 13 501 52 237 49 364 68 524 77 274 17 488 -14 630 -90 l76 -42 75
44 c59 35 115 85 264 237 298 303 385 358 609 387 71 9 79 27 88 199 8 167 13
179 106 281 109 117 135 192 121 355 -17 219 -176 470 -427 672 -345 279 -934
527 -1456 614 -162 27 -497 25 -655 -4 -123 -22 -251 -60 -339 -98 -68 -30
-71 -30 -71 6 0 61 -22 132 -52 166 -37 42 -128 86 -228 109 -105 25 -205 60
-255 89 -34 21 -75 69 -122 145 -1 2 -38 -30 -82 -71 -126 -118 -273 -186
-485 -223 -393 -68 -782 111 -1013 467 -88 136 -136 283 -152 471 -12 140 -35
212 -117 363 -172 316 -179 342 -178 604 2 284 31 514 85 671 52 153 96 208
243 303 181 118 230 184 281 381 47 176 70 200 234 235 143 30 163 46 197 155
24 77 68 120 182 178 190 98 283 111 772 108 359 -2 620 7 835 30 320 33 815
35 985 4z"/>
</g>
</svg>
